<svg xmlns="http://www.w3.org/2000/svg" viewBox="0 0 32 32" width="32" height="32">
  <defs>
    <linearGradient id="g" x1="0" y1="0" x2="0" y2="1">
      <stop offset="0%" stop-color="#7c3aed"/>
      <stop offset="100%" stop-color="#5b21b6"/>
    </linearGradient>
  </defs>
  <path d="M16 2C16 2 4 14 4 22c0 4 5.5 8 12 8s12-4 12-8C28 14 16 2 16 2z" fill="url(#g)" opacity="0.15"/>
  <path d="M16 4 C16 4 6 13 6 20c0 3.5 4.5 7 10 7s10-3.5 10-7C26 13 16 4 16 4z" fill="none" stroke="url(#g)" stroke-width="1.5"/>
  <line x1="16" y1="4" x2="16" y2="27" stroke="url(#g)" stroke-width="1" opacity="0.6"/>
  <line x1="16" y1="4" x2="8" y2="24" stroke="url(#g)" stroke-width="0.8" opacity="0.4"/>
  <line x1="16" y1="4" x2="24" y2="24" stroke="url(#g)" stroke-width="0.8" opacity="0.4"/>
  <line x1="16" y1="4" x2="11" y2="26" stroke="url(#g)" stroke-width="0.8" opacity="0.4"/>
  <line x1="16" y1="4" x2="21" y2="26" stroke="url(#g)" stroke-width="0.8" opacity="0.4"/>
  <line x1="16" y1="4" x2="6.5" y2="21" stroke="url(#g)" stroke-width="0.8" opacity="0.3"/>
  <line x1="16" y1="4" x2="25.5" y2="21" stroke="url(#g)" stroke-width="0.8" opacity="0.3"/>
  <circle cx="16" cy="27" r="1.5" fill="url(#g)" opacity="0.5"/>
</svg>
